<?xml version="1.0" encoding="iso-8859-1"?>
<!-- Uploaded to: SVG Repo, www.svgrepo.com, Generator: SVG Repo Mixer Tools -->
<svg version="1.1" id="Layer_1" xmlns="http://www.w3.org/2000/svg" xmlns:xlink="http://www.w3.org/1999/xlink" 
	 viewBox="0 0 512 512" xml:space="preserve">
<rect x="15.673" y="39.278" style="fill:#C9E8FA;" width="480.653" height="433.445"/>
<path style="fill:#67BFFF;" d="M0,23.604v464.791h512V23.604H0z M480.653,457.049H31.347V54.951h449.306V457.049z"/>
<rect x="256" y="39.278" style="fill:#B6E0F7;" width="240.327" height="433.445"/>
<polygon style="fill:#0088FF;" points="512,23.604 512,488.396 256,488.396 256,457.049 480.653,457.049 480.653,54.951 256,54.951 
	256,23.604 "/>
<rect y="23.604" style="fill:#C9AD91;" width="512" height="87.761"/>
<rect x="256" y="23.604" style="fill:#B38A65;" width="256" height="87.761"/>
<rect x="397.646" y="23.604" style="fill:#8A6746;" width="114.354" height="87.761"/>
<g>
	<rect x="421.794" y="59.037" style="fill:#FFFFFF;" width="13.932" height="13.932"/>
	<rect x="448.899" y="59.037" style="fill:#FFFFFF;" width="13.932" height="13.932"/>
	<rect x="476.014" y="59.037" style="fill:#FFFFFF;" width="13.932" height="13.932"/>
</g>
<path style="fill:#FD7052;" d="M256,148.992c-73.623,0-133.507,59.894-133.507,133.507c0,73.623,59.883,133.517,133.507,133.517
	s133.517-59.894,133.517-133.517C389.517,208.886,329.623,148.992,256,148.992z M255.54,190.924c0.157,0.23,0.303,0.46,0.46,0.69
	c10.491,15.736,24.534,42.099,29.006,75.212h-58.932C230.609,233.221,245.018,206.576,255.54,190.924z M155.042,298.172h38.567
	c2.038,34.262,14.002,60.991,26.509,79.987C186.149,365.369,160.726,334.984,155.042,298.172z M194.476,266.825h-39.434
	c5.757-37.251,31.713-67.918,66.288-80.426C210.056,205.939,198.175,233.472,194.476,266.825z M264.056,361.942
	c-2.717,4.065-5.465,7.659-8.056,10.783c-0.157,0.188-0.303,0.366-0.46,0.554c-2.727-3.25-5.632-7.032-8.516-11.337
	c-12.946-19.299-20.323-40.709-21.995-63.77h61.032C284.379,321.233,277.002,342.643,264.056,361.942z M356.968,266.825h-40.364
	c-3.73-33.583-15.736-61.262-27.084-80.833C324.671,198.228,351.138,229.167,356.968,266.825z M290.67,378.608
	c12.612-19.028,24.754-45.902,26.802-80.436h39.497C351.201,335.433,325.245,366.101,290.67,378.608z"/>
<path style="fill:#FF4F18;" d="M256,148.992v42.621c10.491,15.736,24.534,42.099,29.006,75.212H256v31.347h30.062
	c-1.682,23.061-9.059,44.471-22.006,63.77c-2.717,4.065-5.465,7.659-8.056,10.783v43.29c73.624,0,133.517-59.894,133.517-133.517
	C389.517,208.886,329.623,148.992,256,148.992z M356.968,266.825h-40.364c-3.73-33.583-15.736-61.262-27.084-80.833
	C324.671,198.228,351.138,229.167,356.968,266.825z M290.67,378.608c12.612-19.028,24.754-45.902,26.802-80.436h39.497
	C351.201,335.433,325.245,366.101,290.67,378.608z"/>
</svg>